<svg width="15" height="15" viewBox="0 0 15 15" fill="none" xmlns="http://www.w3.org/2000/svg">
<path d="M15 1.10294V13.8971C15 14.1896 14.8838 14.4701 14.677 14.677C14.4701 14.8838 14.1896 15 13.8971 15H1.10294C0.810423 15 0.529886 14.8838 0.323044 14.677C0.116202 14.4701 0 14.1896 0 13.8971L0 1.10294C0 0.810423 0.116202 0.529886 0.323044 0.323044C0.529886 0.116202 0.810423 0 1.10294 0L13.8971 0C14.1896 0 14.4701 0.116202 14.677 0.323044C14.8838 0.529886 15 0.810423 15 1.10294ZM4.41176 5.73529H2.20588V12.7941H4.41176V5.73529ZM4.60588 3.30882C4.60824 2.97335 4.47784 2.65056 4.24311 2.41088C4.00838 2.17119 3.68839 2.03406 3.35294 2.02941H3.30882C2.9695 2.02941 2.64408 2.16421 2.40414 2.40414C2.16421 2.64408 2.02941 2.9695 2.02941 3.30882C2.02941 3.64814 2.16421 3.97357 2.40414 4.2135C2.64408 4.45344 2.9695 4.58824 3.30882 4.58824C3.64433 4.59535 3.96903 4.46945 4.21204 4.23801C4.45505 4.00658 4.59664 3.6884 4.60588 3.35294V3.30882ZM12.7941 8.50588C12.7941 6.38824 11.4441 5.55882 10.1029 5.55882C9.66381 5.53684 9.22659 5.63037 8.83489 5.83009C8.44319 6.02981 8.1107 6.32874 7.87059 6.69706H7.80882V5.73529H5.73529V12.7941H7.94118V9.03529C7.90929 8.65078 8.03041 8.26921 8.27823 7.97348C8.52605 7.67775 8.88054 7.49175 9.26471 7.45588H9.35294C10.05 7.45588 10.5706 7.89706 10.5706 9.01765V12.7941H12.7765L12.7941 8.50588Z" fill="white"/>
</svg>
