<svg xmlns="http://www.w3.org/2000/svg" width="25" height="25" fill="#fff" class="bi bi-envelope" viewBox="0 0 25 25"><path d="M0 6.25a3.125 3.125 0 0 1 3.125 -3.125h18.75a3.125 3.125 0 0 1 3.125 3.125v12.5a3.125 3.125 0 0 1 -3.125 3.125H3.125a3.125 3.125 0 0 1 -3.125 -3.125zm3.125 -1.563a1.563 1.563 0 0 0 -1.563 1.563v0.339l10.938 6.563 10.938 -6.563V6.25a1.563 1.563 0 0 0 -1.563 -1.563zm20.313 3.723 -7.356 4.414L23.438 17.352zm-0.053 10.744 -8.813 -5.423L12.5 14.973l-2.072 -1.242 -8.813 5.422A1.563 1.563 0 0 0 3.125 20.313h18.75a1.563 1.563 0 0 0 1.509 -1.158M1.563 17.352l7.356 -4.527L1.563 8.411z"/></svg>