<svg width="24" height="20" viewBox="0 0 24 20" fill="none" xmlns="http://www.w3.org/2000/svg">
<path fill-rule="evenodd" clip-rule="evenodd" d="M22.47 13.9839C22.47 16.1721 20.6901 17.9492 18.5047 17.9492H5.49533C3.30998 17.9492 1.53001 16.172 1.53001 13.9839V5.70621C1.52952 5.00099 1.71845 4.30858 2.07704 3.70134L8.42483 10.0491C9.37451 11.0016 10.6463 11.5264 12.0014 11.5264C13.3537 11.5264 14.6254 11.0016 15.5751 10.0491L21.9229 3.70134C22.2815 4.30857 22.4705 5.00099 22.4699 5.70621V13.9839H22.47ZM18.5047 1.74095H5.49533C4.59287 1.74095 3.75979 2.04637 3.09337 2.55454L9.50503 8.96898C10.1687 9.62983 11.0545 9.99639 12.0014 9.99639C12.9455 9.99639 13.8313 9.62983 14.4949 8.96898L20.9066 2.55454C20.2402 2.04637 19.4072 1.74095 18.5047 1.74095ZM18.5047 0.210938H5.49533C2.46582 0.210938 0 2.67676 0 5.70626V13.984C0 17.0163 2.46582 19.4793 5.49533 19.4793H18.5047C21.5342 19.4793 24 17.0163 24 13.984V5.70621C24 2.67671 21.5342 0.210938 18.5047 0.210938Z" fill="white"/>
</svg>
