<svg xmlns="http://www.w3.org/2000/svg" width="25" height="25" fill="#fff" class="bi bi-telephone" viewBox="0 0 25 25"><path d="M5.709 2.075a1.059 1.059 0 0 0 -1.586 -0.098L2.508 3.594c-0.755 0.756 -1.033 1.827 -0.703 2.766a27.5 27.5 0 0 0 6.513 10.325 27.5 27.5 0 0 0 10.325 6.513c0.939 0.33 2.009 0.052 2.766 -0.703l1.616 -1.616a1.059 1.059 0 0 0 -0.098 -1.586l-3.605 -2.803a1.063 1.063 0 0 0 -0.906 -0.191l-3.422 0.855a2.734 2.734 0 0 1 -2.589 -0.717L8.566 12.597a2.734 2.734 0 0 1 -0.719 -2.589l0.856 -3.422a1.063 1.063 0 0 0 -0.191 -0.906zM2.944 0.798a2.727 2.727 0 0 1 4.081 0.255L9.828 4.656c0.514 0.661 0.695 1.522 0.492 2.334l-0.855 3.422a1.063 1.063 0 0 0 0.278 1.005l3.839 3.839a1.063 1.063 0 0 0 1.006 0.278l3.42 -0.855a2.734 2.734 0 0 1 2.334 0.492l3.603 2.803c1.295 1.008 1.414 2.922 0.255 4.08l-1.616 1.616c-1.156 1.156 -2.884 1.664 -4.495 1.097a29.063 29.063 0 0 1 -10.953 -6.906 29.063 29.063 0 0 1 -6.906 -10.952c-0.566 -1.609 -0.058 -3.339 1.098 -4.495z"/></svg>