<svg width="21" height="21" viewBox="0 0 21 21" fill="none" xmlns="http://www.w3.org/2000/svg">
<path fill-rule="evenodd" clip-rule="evenodd" d="M19.4081 16.9835L17.3281 19.0636C17.2711 19.1231 17.2215 19.1578 17.1496 19.1975C14.2119 20.7793 8.57437 17.8239 5.98369 15.0943C5.9564 15.0645 5.93407 15.0422 5.90683 15.0149C3.17725 12.4241 0.222123 6.7862 1.80381 3.84823C1.84348 3.77633 1.87819 3.7292 1.93769 3.67222L4.01767 1.58963C4.17138 1.4359 4.34244 1.3665 4.55562 1.3665H4.57297C4.79609 1.36898 4.96964 1.44833 5.12086 1.61195L7.80327 4.50777C8.08589 4.81024 8.07595 5.27634 7.78343 5.56892L6.05051 7.30196C5.56213 7.79286 5.34891 8.43993 5.45057 9.12424C5.66623 10.5647 6.39016 11.9184 7.66442 13.2597C7.69171 13.287 7.71399 13.3118 7.74128 13.3366C9.0825 14.6109 10.4336 15.3349 11.874 15.5506C12.5607 15.6522 13.2077 15.439 13.6986 14.9481L15.4291 13.2175C15.5689 13.0768 15.7579 12.9958 15.9563 12.9916C16.1547 12.9874 16.3469 13.0604 16.4926 13.1952L19.3882 15.8778C19.5518 16.029 19.6287 16.2026 19.6336 16.4257C19.6386 16.6488 19.5667 16.8248 19.4081 16.9835ZM20.3154 14.8761L17.4198 12.1935C16.5769 11.4125 15.2778 11.4373 14.4647 12.2506L12.7317 13.9836C12.5508 14.1646 12.3301 14.2365 12.0773 14.1993C10.922 14.0257 9.81384 13.4208 8.68087 12.3448C8.67093 12.3374 8.66352 12.3274 8.65357 12.3175C7.58011 11.1869 6.97519 10.0762 6.80169 8.92334C6.7645 8.67043 6.83639 8.44978 7.01739 8.26633L8.75031 6.53578C9.56348 5.72256 9.58828 4.4234 8.80485 3.57797L6.12493 0.682148C5.72086 0.248267 5.1928 0.0102704 4.60026 0.000329387C4.00777 -0.00956644 3.47226 0.203623 3.05083 0.625122L0.970812 2.70528C0.819583 2.85652 0.703055 3.01273 0.601437 3.20116C0.11802 4.09616 -0.0753651 5.18954 0.0262977 6.44405C0.11305 7.52748 0.415508 8.71259 0.926216 9.96218C1.84597 12.2183 3.35577 14.4794 4.96471 16.0067C4.97709 16.0166 4.98455 16.024 4.99444 16.034C6.5216 17.643 8.78004 19.1554 11.0361 20.0752C12.288 20.5835 13.4705 20.886 14.5539 20.9752C14.7696 20.9925 14.9803 21 15.1861 21C16.1802 21 17.0553 20.7992 17.7966 20.4C17.985 20.2983 18.1437 20.1819 18.295 20.0306L20.3749 17.948C20.7939 17.529 21.0096 16.9935 20.9997 16.4009C20.9872 15.8058 20.7518 15.2802 20.3154 14.8761Z" fill="white"/>
</svg>
